<svg id="bold" height="512" viewBox="0 0 24 24" width="512" xmlns="http://www.w3.org/2000/svg"><path d="m12 15.5c-.553 0-1-.448-1-1v-2c0-.552.447-1 1-1s1 .448 1 1v2c0 .552-.447 1-1 1z"/><path d="m18.001 11.92c-.317 0-.629-.15-.823-.431-.314-.454-.201-1.077.253-1.391.235-.163.462-.345.679-.526 1.836-1.547 3.067-3.716 3.464-6.105l.44-2.631c.092-.545.604-.914 1.151-.821.545.091.912.607.821 1.151l-.44 2.63c-.474 2.856-1.948 5.453-4.151 7.31-.268.223-.541.441-.825.638-.174.118-.373.176-.569.176z"/><path d="m5.999 11.92c-.2 0-.403-.06-.579-.185-2.661-1.894-4.425-4.714-4.966-7.94l-.44-2.63c-.091-.544.276-1.06.821-1.151.54-.093 1.06.276 1.151.821l.44 2.63c.452 2.698 1.928 5.057 4.153 6.64.449.32.555.945.234 1.395-.193.274-.501.42-.814.42z"/><path d="m12 13.5c-1.344 0-2.653-.213-3.892-.633-.522-.177-.803-.745-.626-1.268.178-.522.745-.803 1.269-.625 2.063.699 4.436.699 6.498 0 .523-.177 1.091.103 1.269.625.177.523-.104 1.091-.626 1.268-1.239.42-2.548.633-3.892.633z"/><path d="m12 24c-.309 0-.586-.189-.698-.477l-2.25-5.75c-.099-.252-.054-.539.118-.749l2.25-2.75c.283-.348.877-.348 1.16 0l2.25 2.75c.172.21.217.496.118.749l-2.25 5.75c-.112.288-.389.477-.698.477z"/><path d="m17 13.75c-1.24 0-2.25-1.009-2.25-2.25s1.01-2.25 2.25-2.25 2.25 1.009 2.25 2.25-1.01 2.25-2.25 2.25z"/><path d="m7 13.75c-1.24 0-2.25-1.009-2.25-2.25s1.01-2.25 2.25-2.25 2.25 1.009 2.25 2.25-1.01 2.25-2.25 2.25z"/></svg>